<svg preserveAspectRatio="none" width="100%" height="100%" overflow="visible" style="display: block;" viewBox="0 0 65.211 17.5234" fill="none" xmlns="http://www.w3.org/2000/svg">
<g id="Group 10">
<path id="Vector" d="M65.211 3.07624C65.211 4.0467 64.4969 4.76081 63.5264 4.76081C62.5559 4.76081 61.8418 4.0467 61.8418 3.07624C61.8418 2.10578 62.5559 1.39167 63.5264 1.39167C64.4969 1.39167 65.211 2.10578 65.211 3.07624ZM64.8448 3.07624C64.8411 2.31086 64.2881 1.7469 63.5301 1.7469C62.772 1.7469 62.2154 2.3072 62.2154 3.07624C62.2154 3.84529 62.772 4.40559 63.5301 4.40559C64.2881 4.40559 64.8411 3.84529 64.8448 3.07624Z" fill="var(--fill-0, white)"/>
<path id="Vector_2" d="M63.607 3.27048H63.2921V3.95896H62.9588V2.17185H63.8011C64.0465 2.17185 64.1783 2.30368 64.1783 2.54905V2.89328C64.1783 3.08371 64.0977 3.20456 63.9439 3.25217L64.182 3.95896H63.8267L63.607 3.27048ZM63.2921 2.45383V2.9885H63.7498C63.8157 2.9885 63.8487 2.95554 63.8487 2.88962V2.55637C63.8487 2.49045 63.8194 2.45749 63.7498 2.45749H63.2921V2.45383Z" fill="var(--fill-0, white)"/>
<path id="Vector_3" d="M19.1707 4.58874H17.4861C16.5889 4.58874 16.1348 4.78283 15.5672 5.16003L15.1057 5.46398V0.000116122H11.6927V17.4208H15.1057V8.78551L16.4534 7.91759C16.8086 7.70519 17.01 7.58434 17.4422 7.58434H18.3211C18.7935 7.58434 18.9949 7.78576 18.9949 8.25817V17.4208H22.408V7.79308C22.408 5.72399 21.2617 4.58508 19.178 4.58508L19.1707 4.58874Z" fill="var(--fill-0, white)"/>
<path id="Vector_4" d="M31.3736 4.68739H31.1685V13.3007L29.8209 14.1906L29.7147 14.2565C29.4327 14.4286 29.2789 14.5238 28.8358 14.5238H27.9569C27.4845 14.5238 27.283 14.3224 27.283 13.85V4.68739H23.87V14.3151C23.87 16.3842 25.0162 17.5231 27.0999 17.5231H28.7845C29.711 17.5231 30.1615 17.2887 30.6998 16.9555L31.3626 16.5197L31.4652 17.2484L31.4908 17.4242H34.5816V4.68739H31.3736Z" fill="var(--fill-0, white)"/>
<path id="Vector_5" d="M42.6746 4.58887H39.5764C37.24 4.58887 35.9546 5.88525 35.9546 8.23633V13.876C35.9546 16.227 37.24 17.5234 39.5764 17.5234H42.6746C44.978 17.5234 46.2488 16.2637 46.2488 13.9749V13.085H42.9089V14.0225C42.9089 14.5059 42.6929 14.7219 42.2095 14.7219H40.0378C39.5435 14.7219 39.3384 14.5205 39.3384 14.0225V12.1035H46.2451V8.23633C46.2451 5.88525 44.9744 4.58887 42.6709 4.58887H42.6746ZM42.9309 9.42285H39.3384V8.08984C39.3384 7.59546 39.5398 7.39038 40.0378 7.39038H42.2607C42.7405 7.39038 42.9346 7.5918 42.9346 8.08984V9.42285H42.9309Z" fill="var(--fill-0, white)"/>
<path id="Vector_6" d="M61.2707 14.4251H58.9269C58.4435 14.4251 58.2531 14.2347 58.2531 13.7513V7.77839H61.4757V4.75715H58.2531V1.39167H54.818V4.76081H53.4118C52.5036 4.76081 52.0202 4.96955 51.4892 5.3321L50.7641 5.8448L50.6359 4.86335L50.6139 4.68391H47.5194V17.4207H50.9325V9.36042L52.5402 8.10432C52.8295 7.86262 53.0053 7.78205 53.5106 7.78205H54.818V13.8026C54.818 16.139 56.1034 17.4244 58.4398 17.4244H61.4757V14.4288H61.2707V14.4251Z" fill="var(--fill-0, white)"/>
<path id="Vector_7" d="M8.26171 10.2581L3.81958 9.18506C3.55224 9.12646 3.48633 9.05322 3.48633 8.79687V7.79712C3.48633 7.67261 3.48633 7.29541 4.20776 7.29541H6.11206C6.60644 7.29541 6.81152 7.47485 6.81152 7.92163V8.85913H10.1514V7.94727C10.1514 5.78296 8.88061 4.59277 6.57715 4.59277H3.79394C1.44287 4.59277 0.146482 5.71338 0.146482 7.74951V9.2876C0.146482 11.0894 1.57471 11.5764 2.0105 11.6826L6.59912 12.8289C6.94702 12.9167 7.00561 13.0339 7.00561 13.2646V14.2644C7.00561 14.5391 6.92138 14.7917 6.30615 14.7917H4.03564C3.42041 14.7917 3.33618 14.5024 3.33618 14.1912V13.0596H0V14.1655C0 16.3262 1.27808 17.52 3.59619 17.52H6.69433C9.03076 17.52 10.3162 16.3994 10.3162 14.3633V12.5798C10.3162 11.4153 9.58373 10.5913 8.25805 10.2581H8.26171Z" fill="var(--fill-0, white)"/>
</g>
</svg>
