<svg preserveAspectRatio="none" width="100%" height="100%" overflow="visible" style="display: block;" viewBox="0 0 12 12" fill="none" xmlns="http://www.w3.org/2000/svg">
<path id="Vector (Stroke)" d="M8.45912 4.86145C8.45912 2.87434 6.84854 1.26326 4.86145 1.26316C2.87427 1.26316 1.26316 2.87427 1.26316 4.86145C1.26326 6.84854 2.87434 8.45912 4.86145 8.45912C6.84848 8.45902 8.45902 6.84848 8.45912 4.86145ZM9.72228 4.86145C9.72224 5.97605 9.34599 7.00199 8.71508 7.82199L11.815 10.9219C12.0617 11.1686 12.0617 11.5684 11.815 11.815C11.5684 12.0617 11.1686 12.0617 10.9219 11.815L7.82199 8.71508C7.00199 9.34599 5.97605 9.72224 4.86145 9.72228C2.17671 9.72228 0.000101071 7.54617 0 4.86145C0 2.17665 2.17665 0 4.86145 0C7.54617 0.000101073 9.72228 2.17671 9.72228 4.86145Z" fill="var(--fill-0, black)" fill-opacity="0.25"/>
</svg>
