<svg preserveAspectRatio="none" width="100%" height="100%" overflow="visible" style="display: block;" viewBox="0 0 33.5628 34.4991" fill="none" xmlns="http://www.w3.org/2000/svg">
<g id="Group 55">
<path id="layer1" d="M22.8622 17.3342V20.1535M4.06683 11.8614V4.06683M4.06683 4.06683H22.8622M4.06683 4.06683L0.75 0.75M22.8622 4.06683V7.38366M22.8622 4.06683L26.179 0.75M17.3342 31.7071H4.06683V21.7566" stroke="var(--stroke-0, #D12539)" stroke-width="1.5" stroke-linecap="round" stroke-linejoin="round"/>
<path id="layer2" d="M29.3296 22.7527C29.0831 21.8785 28.5733 21.1014 27.8696 20.5271C27.166 19.9528 26.3025 19.609 25.3967 19.5426C24.4908 19.4762 23.5865 19.6903 22.8066 20.1558C22.0267 20.6213 21.409 21.3157 21.0375 22.1446C20.5781 21.8982 20.0663 21.7655 19.545 21.7576C18.6653 21.7576 17.8216 22.1071 17.1996 22.7291C16.5776 23.3511 16.2281 24.1948 16.2281 25.0745M22.8618 17.3352L4.06641 21.7576V11.8624L22.8618 7.38468V17.3352Z" stroke="var(--stroke-0, #D12539)" stroke-width="1.5" stroke-linecap="round" stroke-linejoin="round"/>
<path id="layer1_2" d="M32.8126 14.0155L28.3902 25.0716M14.0172 25.0716C14.1987 27.4324 15.2646 29.6377 17.0018 31.2465C18.739 32.8553 21.0195 33.7491 23.3873 33.7491C25.755 33.7491 28.0355 32.8553 29.7727 31.2465C31.5099 29.6377 32.5759 27.4324 32.7573 25.0716H14.0172Z" stroke="var(--stroke-0, #D12539)" stroke-width="1.5" stroke-linecap="round" stroke-linejoin="round"/>
</g>
</svg>
