<svg preserveAspectRatio="none" width="100%" height="100%" overflow="visible" style="display: block;" viewBox="0 0 1157.86 311.136" fill="none" xmlns="http://www.w3.org/2000/svg">
<g id="Group 10">
<path id="Vector" d="M1157.86 54.617C1157.86 71.848 1145.18 84.5275 1127.95 84.5275C1110.72 84.5275 1098.04 71.848 1098.04 54.617C1098.04 37.3859 1110.72 24.7065 1127.95 24.7065C1145.18 24.7065 1157.86 37.3859 1157.86 54.617ZM1151.36 54.617C1151.29 41.0272 1141.48 31.0137 1128.02 31.0137C1114.56 31.0137 1104.67 40.9622 1104.67 54.617C1104.67 68.2718 1114.56 78.2202 1128.02 78.2202C1141.48 78.2202 1151.29 68.2718 1151.36 54.617Z" fill="var(--fill-0, white)"/>
<path id="Vector_2" d="M1129.38 58.0663H1123.79V70.2905H1117.87V38.5594H1132.83C1137.18 38.5594 1139.52 40.9002 1139.52 45.2568V51.3689C1139.52 54.7501 1138.09 56.8958 1135.36 57.7411L1139.59 70.2905H1133.28L1129.38 58.0663ZM1123.79 43.5662V53.0595H1131.91C1133.09 53.0595 1133.67 52.4743 1133.67 51.3039V45.3868C1133.67 44.2164 1133.15 43.6312 1131.91 43.6312H1123.79V43.5662Z" fill="var(--fill-0, white)"/>
<path id="Vector_3" d="M340.397 81.4736H310.486C294.556 81.4736 286.493 84.9198 276.414 91.6172L268.222 97.0141V1.39748e-05H207.62V309.314H268.222V155.99L292.15 140.579C298.457 136.808 302.033 134.662 309.706 134.662H325.312C333.7 134.662 337.276 138.239 337.276 146.627V309.314H397.877V138.369C397.877 101.631 377.525 81.4086 340.527 81.4086L340.397 81.4736Z" fill="var(--fill-0, white)"/>
<path id="Vector_4" d="M557.052 83.2298H553.411V236.164L529.483 251.964L527.597 253.135C522.59 256.191 519.859 257.881 511.992 257.881H496.386C487.998 257.881 484.422 254.305 484.422 245.917V83.2298H423.821V254.175C423.821 290.913 444.173 311.135 481.171 311.135H511.081C527.532 311.135 535.53 306.973 545.088 301.056L556.857 293.319L558.678 306.258L559.133 309.379H614.012V83.2298H557.052Z" fill="var(--fill-0, white)"/>
<path id="Vector_5" d="M757.713 81.4754H702.703C661.219 81.4754 638.396 104.493 638.396 146.238V246.373C638.396 288.118 661.219 311.136 702.703 311.136H757.713C798.612 311.136 821.175 288.768 821.175 248.129V232.328H761.874V248.974C761.874 257.557 758.038 261.394 749.455 261.394H710.896C702.118 261.394 698.477 257.817 698.477 248.974V214.902H821.11V146.238C821.11 104.493 798.547 81.4754 757.648 81.4754H757.713ZM762.264 167.306H698.477V143.637C698.477 134.859 702.053 131.218 710.896 131.218H750.365C758.883 131.218 762.329 134.794 762.329 143.637V167.306H762.264Z" fill="var(--fill-0, white)"/>
<path id="Vector_6" d="M1087.9 256.123H1046.28C1037.7 256.123 1034.32 252.742 1034.32 244.158V138.106H1091.54V84.4624H1034.32V24.7065H973.327V84.5275H948.358C932.232 84.5275 923.649 88.2338 914.221 94.671L901.346 103.774L899.071 86.3481L898.68 83.162H843.736V309.311H904.337V166.196L932.882 143.893C938.019 139.602 941.14 138.171 950.114 138.171H973.327V245.069C973.327 286.553 996.15 309.376 1037.63 309.376H1091.54V256.188H1087.9V256.123Z" fill="var(--fill-0, white)"/>
<path id="Vector_7" d="M146.692 182.127L67.8188 163.075C63.0722 162.034 61.9017 160.734 61.9017 156.182V138.431C61.9017 136.22 61.9017 129.523 74.7112 129.523H108.523C117.301 129.523 120.942 132.709 120.942 140.642V157.288H180.243V141.097C180.243 102.669 157.68 81.5362 116.781 81.5362H67.3637C25.619 81.5362 2.60089 101.433 2.60089 137.586V164.895C2.60089 196.887 27.9598 205.535 35.6975 207.42L117.171 227.773C123.348 229.333 124.389 231.414 124.389 235.51V253.262C124.389 258.138 122.893 262.625 111.969 262.625H71.6552C60.7313 262.625 59.2358 257.488 59.2358 251.961V231.869H2.11338e-05V251.506C2.11338e-05 289.869 22.693 311.067 63.8524 311.067H118.862C160.346 311.067 183.169 291.17 183.169 255.017V223.351C183.169 202.674 170.165 188.044 146.626 182.127H146.692Z" fill="var(--fill-0, white)"/>
</g>
</svg>
