<svg preserveAspectRatio="none" width="100%" height="100%" overflow="visible" style="display: block;" viewBox="0 0 34.4999 34.5002" fill="none" xmlns="http://www.w3.org/2000/svg">
<g id="Group 57">
<path id="layer1" d="M21.815 12.6849L30.0648 4.43511M20 10.815L24.5649 0.750184M23.6849 14.4999L33.7497 9.93499" stroke="var(--stroke-0, #D12539)" stroke-width="1.5" stroke-linecap="round" stroke-linejoin="round"/>
<path id="layer2" d="M2.17997 15.0506C0.993302 17.9329 0.953948 21.16 2.06997 24.0704C3.11495 27.0953 4.43492 30.0653 0.75 33.7502C4.43492 30.0653 7.01987 31.4402 10.4298 32.4302C13.3392 33.5519 16.5684 33.5125 19.4496 32.3202M24.3445 28.0303C27.0944 23.4104 26.2145 17.0305 21.8146 12.6856C17.4146 8.34072 11.0898 7.40574 6.46988 10.1557" stroke="var(--stroke-0, #D12539)" stroke-width="1.5" stroke-linecap="round" stroke-linejoin="round"/>
<path id="layer1_2" d="M4.43531 11.7494C3.50118 12.7014 2.75484 13.821 2.23535 15.0494L19.45 32.319C21.4967 31.4466 23.2115 29.9437 24.3449 28.0291L6.47026 10.1545C5.72917 10.6008 5.04573 11.1364 4.43531 11.7494Z" stroke="var(--stroke-0, #D12539)" stroke-width="1.5" stroke-linecap="round" stroke-linejoin="round"/>
</g>
</svg>
