<svg preserveAspectRatio="none" width="100%" height="100%" overflow="visible" style="display: block;" viewBox="0 0 33.505 33.5" fill="none" xmlns="http://www.w3.org/2000/svg">
<g id="Group 60">
<path id="layer2" d="M8.21928 7.14993V3.94997C8.21928 3.10128 8.55641 2.28736 9.15652 1.68725C9.75663 1.08714 10.5706 0.75 11.4192 0.75H14.6192C15.4679 0.75 16.2818 1.08714 16.8819 1.68725C17.482 2.28736 17.8192 3.10128 17.8192 3.94997V7.14993M19.9525 0.75H21.0191C21.8678 0.75 22.6817 1.08714 23.2819 1.68725C23.882 2.28736 24.2191 3.10128 24.2191 3.94997V7.14993" stroke="var(--stroke-0, #D12539)" stroke-width="1.5" stroke-miterlimit="10" stroke-linecap="round" stroke-linejoin="round"/>
<path id="layer1" d="M24.2218 32.75V7.15027M0.75 7.15027H32.755V32.75H0.75V7.15027Z" stroke="var(--stroke-0, #D12539)" stroke-width="1.5" stroke-miterlimit="10" stroke-linecap="round" stroke-linejoin="round"/>
<path id="layer1_2" d="M28.4883 7.15027V28.4834L32.7549 32.75" stroke="var(--stroke-0, #D12539)" stroke-width="1.5" stroke-miterlimit="10" stroke-linecap="round" stroke-linejoin="round"/>
</g>
</svg>
