<svg preserveAspectRatio="none" width="100%" height="100%" overflow="visible" style="display: block;" viewBox="0 0 100.478 27" fill="none" xmlns="http://www.w3.org/2000/svg">
<g id="Group 10">
<path id="Vector" d="M100.478 4.74014C100.478 6.23544 99.3777 7.33575 97.8824 7.33575C96.3871 7.33575 95.2867 6.23544 95.2867 4.74014C95.2867 3.24484 96.3871 2.14453 97.8824 2.14453C99.3777 2.14453 100.478 3.24484 100.478 4.74014ZM99.9137 4.74014C99.9081 3.56083 99.056 2.69187 97.888 2.69187C96.72 2.69187 95.8623 3.55519 95.8623 4.74014C95.8623 5.92509 96.72 6.78841 97.888 6.78841C99.056 6.78841 99.9081 5.92509 99.9137 4.74014Z" fill="var(--fill-0, white)"/>
<path id="Vector_2" d="M98.0066 5.03849H97.5213V6.09931H97.0078V3.3457H98.3056C98.6837 3.3457 98.8868 3.54884 98.8868 3.92689V4.4573C98.8868 4.75072 98.7627 4.93692 98.5257 5.01028L98.8924 6.09931H98.3451L98.0066 5.03849ZM97.5213 3.78019V4.60401H98.2266C98.3282 4.60401 98.379 4.55323 98.379 4.45166V3.93818C98.379 3.83661 98.3338 3.78583 98.2266 3.78583H97.5213V3.78019Z" fill="var(--fill-0, white)"/>
<path id="Vector_3" d="M29.5386 7.07022H26.943C25.5605 7.07022 24.8609 7.36928 23.9863 7.95047L23.2753 8.4188V3.8147e-06H18.0164V26.842H23.2753V13.5367L25.3518 12.1994C25.8991 11.8721 26.2094 11.6859 26.8753 11.6859H28.2295C28.9574 11.6859 29.2678 11.9962 29.2678 12.7241V26.842H34.5267V12.0075C34.5267 8.81943 32.7605 7.06457 29.5499 7.06457L29.5386 7.07022Z" fill="var(--fill-0, white)"/>
<path id="Vector_4" d="M48.3408 7.22259H48.0248V20.4941L45.9483 21.8652L45.7847 21.9668C45.3502 22.232 45.1132 22.3787 44.4305 22.3787H43.0762C42.3483 22.3787 42.038 22.0683 42.038 21.3404V7.22259H36.7791V22.0571C36.7791 25.2451 38.5452 27 41.7559 27H44.3515C45.779 27 46.4731 26.6389 47.3026 26.1254L48.3239 25.4539L48.4819 26.5768L48.5214 26.8477H53.2837V7.22259H48.3408Z" fill="var(--fill-0, white)"/>
<path id="Vector_5" d="M65.7536 7.07024H60.9799C57.3799 7.07024 55.3994 9.06773 55.3994 12.6903V21.3799C55.3994 25.0025 57.3799 27 60.9799 27H65.7536C69.3028 27 71.2608 25.0589 71.2608 21.5323V20.1611H66.1147V21.6057C66.1147 22.3505 65.7818 22.6834 65.037 22.6834H61.6909C60.9292 22.6834 60.6132 22.373 60.6132 21.6057V18.6489H71.2552V12.6903C71.2552 9.06773 69.2972 7.07024 65.748 7.07024H65.7536ZM66.1486 14.5185H60.6132V12.4646C60.6132 11.7028 60.9235 11.3869 61.6909 11.3869H65.116C65.8552 11.3869 66.1542 11.6972 66.1542 12.4646V14.5185H66.1486Z" fill="var(--fill-0, white)"/>
<path id="Vector_6" d="M94.4066 22.2266H90.7953C90.0505 22.2266 89.757 21.9332 89.757 21.1884V11.9853H94.7226V7.33011H89.757V2.14453H84.4643V7.33575H82.2975C80.8981 7.33575 80.1533 7.65738 79.3351 8.216L78.2179 9.00597L78.0204 7.49374L77.9865 7.21725H73.2185V26.8423H78.4774V14.4229L80.9546 12.4875C81.4003 12.1151 81.6712 11.9909 82.4498 11.9909H84.4643V21.2674C84.4643 24.8674 86.4448 26.848 90.0448 26.848H94.7226V22.2323H94.4066V22.2266Z" fill="var(--fill-0, white)"/>
<path id="Vector_7" d="M12.7298 15.8053L5.88526 14.152C5.47335 14.0617 5.37178 13.9489 5.37178 13.5539V12.0135C5.37178 11.8216 5.37178 11.2404 6.48338 11.2404H9.41754C10.1793 11.2404 10.4953 11.5169 10.4953 12.2053V13.6498H15.6414V12.2448C15.6414 8.91003 13.6834 7.07617 10.1342 7.07617H5.84576C2.2232 7.07617 0.225702 8.80282 0.225702 11.9401V14.31C0.225702 17.0862 2.42633 17.8367 3.0978 18.0003L10.168 19.7664C10.7041 19.9019 10.7943 20.0824 10.7943 20.4379V21.9784C10.7943 22.4015 10.6646 22.7909 9.7166 22.7909H6.21817C5.27021 22.7909 5.14043 22.3451 5.14043 21.8655V20.1219H0V21.826C0 25.1552 1.96928 26.9946 5.54106 26.9946H10.3147C13.9147 26.9946 15.8953 25.268 15.8953 22.1307V19.3827C15.8953 17.5884 14.7668 16.3188 12.7241 15.8053H12.7298Z" fill="var(--fill-0, white)"/>
</g>
</svg>
