<svg preserveAspectRatio="none" width="100%" height="100%" overflow="visible" style="display: block;" viewBox="0 0 35.5922 26.5009" fill="none" xmlns="http://www.w3.org/2000/svg">
<g id="Group 54">
<path id="layer2" d="M8.70515 22.3417V24.6145C8.70515 24.9159 8.58542 25.2049 8.3723 25.418C8.15919 25.6312 7.87014 25.7509 7.56874 25.7509H3.02312C2.72173 25.7509 2.43268 25.6312 2.21956 25.418C2.00645 25.2049 1.88672 24.9159 1.88672 24.6145V22.228M33.7061 22.228V24.6145C33.7061 24.9159 33.5863 25.2049 33.3732 25.418C33.1601 25.6312 32.8711 25.7509 32.5697 25.7509H28.024C27.7226 25.7509 27.4336 25.6312 27.2205 25.418C27.0074 25.2049 26.8876 24.9159 26.8876 24.6145V22.3417M13.2508 14.3868H22.342" stroke="var(--stroke-0, #D12539)" stroke-width="1.5" stroke-linecap="round" stroke-linejoin="round"/>
<path id="layer1" d="M30.2965 7.56843L25.7509 0.75H9.84124L5.29562 7.56843M30.2965 7.56843L34.8422 12.1141V20.6371C34.8422 21.0892 34.6626 21.5228 34.3429 21.8424C34.0232 22.1621 33.5896 22.3417 33.1375 22.3417H2.45461C2.00252 22.3417 1.56894 22.1621 1.24927 21.8424C0.929592 21.5228 0.75 21.0892 0.75 20.6371V12.1141L5.29562 7.56843M30.2965 7.56843H34.8422M5.29562 7.56843H0.75M4.27286 8.70484H31.4329M0.75 17.7961H34.8422" stroke="var(--stroke-0, #D12539)" stroke-width="1.5" stroke-linecap="round" stroke-linejoin="round"/>
<path id="layer1_2" d="M0.75 13.2521H6.43203L10.9776 17.7977M34.8422 13.2521H29.1601L24.6145 17.7977" stroke="var(--stroke-0, #D12539)" stroke-width="1.5" stroke-linecap="round" stroke-linejoin="round"/>
</g>
</svg>
