<svg preserveAspectRatio="none" width="100%" height="100%" overflow="visible" style="display: block;" viewBox="0 0 27.9001 34.4993" fill="none" xmlns="http://www.w3.org/2000/svg">
<g id="Group 56">
<path id="layer2" d="M5.14894 29.3488C3.97002 29.3127 2.8515 28.8189 2.03037 27.9722C1.20924 27.1256 0.750017 25.9924 0.75 24.813V9.68782C0.75 8.48439 1.22806 7.33025 2.07902 6.4793C2.92997 5.62834 4.08411 5.15028 5.28754 5.15028H16.7001" stroke="var(--stroke-0, #D12539)" stroke-width="1.5" stroke-miterlimit="10" stroke-linecap="round" stroke-linejoin="round"/>
<path id="layer1" d="M22.7501 5.15235C23.9291 5.1881 25.0479 5.68159 25.8693 6.52823C26.6907 7.37487 27.1501 8.50809 27.1501 9.68769V24.8128C27.1501 26.0163 26.6721 27.1704 25.8211 28.0214C24.9702 28.8723 23.816 29.3504 22.6126 29.3504H11.2" stroke="var(--stroke-0, #D12539)" stroke-width="1.5" stroke-miterlimit="10" stroke-linecap="round" stroke-linejoin="round"/>
<path id="layer2_2" d="M11.7499 9.55009L16.6999 5.15005L11.7499 0.750008" stroke="var(--stroke-0, #D12539)" stroke-width="1.5" stroke-miterlimit="10" stroke-linecap="round" stroke-linejoin="round"/>
<path id="layer1_2" d="M16.15 24.9492L11.2 29.3493L16.15 33.7493" stroke="var(--stroke-0, #D12539)" stroke-width="1.5" stroke-miterlimit="10" stroke-linecap="round" stroke-linejoin="round"/>
</g>
</svg>
