<svg xmlns="http://www.w3.org/2000/svg" width="139" height="27" viewBox="0 0 139 27" fill="none">
<path d="M6.40438 0C2.8721 0 0 2.83824 0 6.34796C0 9.85767 2.8721 12.6959 6.40438 12.6959H30.7636V0H6.40438Z" fill="#D12539"/>
<path d="M25.7417 26.8424C29.3134 26.8424 32.2081 24.0042 32.2081 20.4944C32.2081 16.9847 29.3134 14.1465 25.7417 14.1465H0V26.8424H25.7417Z" fill="#D12539"/>
<path d="M138.673 4.74014C138.673 6.23544 137.573 7.33575 136.078 7.33575C134.582 7.33575 133.482 6.23544 133.482 4.74014C133.482 3.24484 134.582 2.14453 136.078 2.14453C137.573 2.14453 138.673 3.24484 138.673 4.74014ZM138.109 4.74014C138.103 3.56083 137.251 2.69187 136.083 2.69187C134.915 2.69187 134.058 3.55519 134.058 4.74014C134.058 5.92509 134.915 6.78841 136.083 6.78841C137.251 6.78841 138.103 5.92509 138.109 4.74014Z" fill="white"/>
<path d="M136.202 5.03849H135.717V6.09931H135.203V3.3457H136.501C136.879 3.3457 137.082 3.54884 137.082 3.92689V4.4573C137.082 4.75072 136.958 4.93692 136.721 5.01028L137.088 6.09931H136.541L136.202 5.03849ZM135.717 3.78019V4.60401H136.422C136.524 4.60401 136.574 4.55323 136.574 4.45166V3.93818C136.574 3.83661 136.529 3.78583 136.422 3.78583H135.717V3.78019Z" fill="white"/>
<path d="M67.734 7.07021H65.1384C63.756 7.07021 63.0563 7.36927 62.1817 7.95046L61.4707 8.4188V0H56.2118V26.842H61.4707V13.5367L63.5472 12.1994C64.0945 11.8721 64.4049 11.6859 65.0707 11.6859H66.4249C67.1528 11.6859 67.4632 11.9962 67.4632 12.7241V26.842H72.7221V12.0075C72.7221 8.81943 70.956 7.06457 67.7453 7.06457L67.734 7.07021Z" fill="white"/>
<path d="M86.5362 7.22253H86.2202V20.494L84.1438 21.8652L83.9801 21.9667C83.5456 22.2319 83.3086 22.3786 82.6259 22.3786H81.2717C80.5438 22.3786 80.2334 22.0683 80.2334 21.3404V7.22253H74.9745V22.057C74.9745 25.2451 76.7406 26.9999 79.9513 26.9999H82.5469C83.9745 26.9999 84.6685 26.6388 85.498 26.1253L86.5193 25.4539L86.6773 26.5767L86.7168 26.8476H91.4792V7.22253H86.5362Z" fill="white"/>
<path d="M103.949 7.07019H99.1754C95.5754 7.07019 93.5948 9.06768 93.5948 12.6902V21.3799C93.5948 25.0025 95.5754 27 99.1754 27H103.949C107.498 27 109.456 25.0589 109.456 21.5322V20.1611H104.31V21.6056C104.31 22.3504 103.977 22.6833 103.232 22.6833H99.8864C99.1246 22.6833 98.8086 22.373 98.8086 21.6056V18.6489H109.451V12.6902C109.451 9.06768 107.493 7.07019 103.943 7.07019H103.949ZM104.344 14.5185H98.8086V12.4645C98.8086 11.7028 99.119 11.3868 99.8864 11.3868H103.311C104.051 11.3868 104.35 11.6971 104.35 12.4645V14.5185H104.344Z" fill="white"/>
<path d="M132.602 22.2266H128.991C128.246 22.2266 127.952 21.9332 127.952 21.1884V11.9853H132.918V7.33011H127.952V2.14453H122.66V7.33575H120.493C119.094 7.33575 118.349 7.65738 117.531 8.216L116.413 9.00597L116.216 7.49374L116.182 7.21725H111.414V26.8423H116.673V14.4229L119.15 12.4875C119.596 12.1151 119.867 11.9909 120.645 11.9909H122.66V21.2674C122.66 24.8674 124.64 26.848 128.24 26.848H132.918V22.2323H132.602V22.2266Z" fill="white"/>
<path d="M50.9252 15.8053L44.0807 14.152C43.6688 14.0617 43.5672 13.9489 43.5672 13.5539V12.0135C43.5672 11.8216 43.5672 11.2404 44.6788 11.2404H47.613C48.3747 11.2404 48.6907 11.5169 48.6907 12.2053V13.6498H53.8368V12.2448C53.8368 8.91003 51.8788 7.07617 48.3296 7.07617H44.0412C40.4186 7.07617 38.4211 8.80282 38.4211 11.9401V14.31C38.4211 17.0862 40.6218 17.8367 41.2932 18.0003L48.3634 19.7664C48.8995 19.9019 48.9898 20.0824 48.9898 20.4379V21.9784C48.9898 22.4015 48.86 22.7909 47.912 22.7909H44.4136C43.4656 22.7909 43.3359 22.3451 43.3359 21.8655V20.1219H38.1954V21.826C38.1954 25.1551 40.1647 26.9946 43.7365 26.9946H48.5102C52.1102 26.9946 54.0907 25.268 54.0907 22.1307V19.3827C54.0907 17.5884 52.9622 16.3188 50.9196 15.8053H50.9252Z" fill="white"/>
</svg>