<svg preserveAspectRatio="none" width="100%" height="100%" overflow="visible" style="display: block;" viewBox="0 0 135 41" fill="none" xmlns="http://www.w3.org/2000/svg">
<g id="Vector">
<path d="M28.73 9.78417V22.9669C28.73 23.1806 28.6459 23.3855 28.4962 23.5366C28.3465 23.6877 28.1435 23.7726 27.9318 23.7726H23.8092C23.5975 23.7725 23.3946 23.6876 23.2449 23.5365C23.0952 23.3854 23.0111 23.1806 23.011 22.9669V1.52454C23.011 1.31085 23.0951 1.10591 23.2448 0.954813C23.3945 0.803712 23.5975 0.718825 23.8092 0.718825H27.6242C27.8359 0.718825 28.0389 0.803712 28.1886 0.954813C28.3383 1.10591 28.4224 1.31085 28.4224 1.52454V4.54419C28.4224 4.54419 29.7862 0.236747 33.8335 0.236747C33.8335 0.236747 37.8368 -0.251726 39.4645 4.23334C39.4645 4.23334 40.8283 0.236747 44.9636 0.236747C44.9636 0.236747 51.1134 -0.132361 51.1134 6.29097L51.1602 9.82858V23.0113C51.1602 23.225 51.0761 23.4299 50.9264 23.581C50.7767 23.7321 50.5737 23.817 50.362 23.817H46.239C46.0273 23.8169 45.8244 23.732 45.6747 23.5809C45.525 23.4298 45.4409 23.225 45.4408 23.0113L45.4032 8.6296C45.5204 5.37299 42.9104 5.60995 42.9104 5.60995C39.6257 5.66928 39.9418 9.82858 39.9418 9.82858V23.0113C39.9418 23.225 39.8577 23.4299 39.708 23.581C39.5583 23.7321 39.3553 23.817 39.1436 23.817H35.0209C34.8093 23.8169 34.6063 23.732 34.4566 23.5809C34.307 23.4298 34.2228 23.225 34.2227 23.0113V8.95501C34.2227 8.95501 34.4638 5.58011 31.5308 5.58011C31.5311 5.58011 28.6276 5.19537 28.73 9.78417ZM135 9.74474V22.9271C135 23.1408 134.916 23.3457 134.766 23.4967C134.616 23.6478 134.413 23.7327 134.202 23.7328L129.914 23.8167C129.702 23.8166 129.499 23.7317 129.35 23.5806C129.2 23.4295 129.116 23.2246 129.116 23.011V8.95501C129.116 8.95501 129.357 5.58011 126.424 5.58011C126.424 5.58011 123.623 5.44085 123.623 10.7323V22.9665C123.623 23.1802 123.539 23.3851 123.389 23.5362C123.24 23.6872 123.037 23.7722 122.825 23.7723H118.702C118.49 23.7722 118.287 23.6872 118.138 23.5362C117.988 23.3851 117.904 23.1802 117.904 22.9665V1.52454C117.904 1.31088 117.988 1.106 118.138 0.954917C118.287 0.803837 118.49 0.718919 118.702 0.718825H122.517C122.729 0.718825 122.932 0.803712 123.081 0.954813C123.231 1.10591 123.315 1.31085 123.315 1.52454V4.54419C123.315 4.54419 124.679 0.236747 128.726 0.236747C128.726 0.236747 133.062 -0.427221 134.522 4.14986C134.522 4.1495 135 5.09376 135 9.74474ZM105.233 0.147933C99.9609 0.147933 95.6866 4.633 95.6866 12.1821C95.6866 18.8286 98.986 24.2163 105.233 24.2163C111.128 24.2163 114.779 18.8286 114.779 12.1821C114.779 4.76622 110.505 0.147933 105.233 0.147933ZM108.561 12.4486C108.561 15.2906 108.209 16.8004 108.209 16.8004C107.708 19.8048 105.547 19.8091 105.229 19.7931C104.885 19.8069 102.706 19.7757 102.255 16.8004C102.255 16.8004 101.903 15.2906 101.903 12.4486V11.975C101.903 9.13299 102.255 7.62317 102.255 7.62317C102.706 4.64792 104.885 4.61666 105.229 4.63016C105.547 4.61417 107.708 4.61808 108.209 7.62317C108.209 7.62317 108.561 9.13299 108.561 11.975V12.4486ZM93.2937 4.51435V1.43786C93.2936 1.2242 93.2095 1.01932 93.0598 0.868235C92.9102 0.717155 92.7072 0.632237 92.4955 0.632143H78.8684C78.6567 0.632143 78.4537 0.717031 78.304 0.868131C78.1543 1.01923 78.0702 1.22417 78.0702 1.43786V4.49055C78.0703 4.70421 78.1544 4.90909 78.3041 5.06017C78.4538 5.21125 78.6567 5.29617 78.8684 5.29626H85.9765L77.5631 17.6164C77.5631 17.6164 77.2315 18.1159 77.2424 18.6676V22.4152C77.2424 22.4152 77.1875 23.7001 78.6312 22.9545C78.6312 22.9545 81.1954 21.3906 85.4951 21.3906C85.4951 21.3906 89.7412 21.3374 92.5722 23.0891C92.5722 23.0891 93.7474 23.6284 93.7474 22.4425V19.1806C93.7474 19.1806 93.854 18.3173 92.7324 17.7784C92.7324 17.7784 89.4741 15.9723 85.2012 16.2686L93.2937 4.51435ZM19.8291 19.938L18.5385 17.955C18.1278 17.2146 18.1574 16.3855 18.1574 16.3855V7.23807C18.3334 -0.666307 9.65206 0.0147135 9.65206 0.0147135C1.93473 0.0147135 0.794794 6.07711 0.794794 6.07711C0.473121 7.29598 1.40858 7.32546 1.40858 7.32546L5.17961 7.71162C5.17961 7.71162 5.82261 7.86012 6.05665 7.08744C6.05665 7.08744 6.55323 4.44259 9.33039 4.44259C12.3521 4.44259 12.3208 7.06045 12.3208 7.06045V9.252C6.28857 9.45556 3.49312 11.1459 3.49312 11.1459C-0.231462 13.2774 0.00292929 17.5109 0.00292929 17.5109C0.00292929 24.4085 6.51381 24.1122 6.51381 24.1122C10.6783 24.1122 13.1419 21.0336 13.1419 21.0336C13.875 22.3367 15.2243 23.5794 15.2243 23.5794C15.8993 24.3183 16.6029 23.698 16.6029 23.698L19.6531 21.0635C20.3275 20.5597 19.8291 19.938 19.8291 19.938ZM8.54627 19.8527C6.58737 19.8527 5.85921 17.8878 6.1844 15.9567C6.50994 14.0255 8.20066 12.5079 12.3212 12.5523V13.7264C12.4672 18.8556 10.1768 19.8527 8.54627 19.8527ZM74.6142 19.938L73.3239 17.955C72.9132 17.2146 72.9424 16.3855 72.9424 16.3855V7.23807C73.1184 -0.666307 64.4371 0.0147135 64.4371 0.0147135C56.7198 0.0147135 55.5799 6.07711 55.5799 6.07711C55.2582 7.29598 56.1936 7.32546 56.1936 7.32546L59.9647 7.71162C59.9647 7.71162 60.6077 7.86012 60.8417 7.08744C60.8417 7.08744 61.3383 4.44259 64.1155 4.44259C67.1372 4.44259 67.1059 7.06045 67.1059 7.06045V9.252C61.074 9.45556 58.2782 11.1459 58.2782 11.1459C54.5536 13.2774 54.788 17.5109 54.788 17.5109C54.788 24.4085 61.2989 24.1122 61.2989 24.1122C65.4634 24.1122 67.927 21.0336 67.927 21.0336C68.6604 22.3367 70.009 23.5794 70.009 23.5794C70.6841 24.3183 71.3879 23.698 71.3879 23.698L74.4378 21.0635C75.1125 20.5597 74.6142 19.938 74.6142 19.938ZM63.3313 19.8527C61.3724 19.8527 60.6443 17.8878 60.9695 15.9567C61.295 14.0255 62.9857 12.5079 67.1059 12.5523V13.7264C67.2523 18.8556 64.9622 19.8527 63.3313 19.8527Z" fill="var(--fill-0, #D4CEC6)"/>
<path d="M84.995 37.2523C84.995 37.2523 84.6501 37.858 85.0738 37.9934C85.0738 37.9934 85.5524 38.182 86.1493 37.6229C86.1493 37.6229 90.5025 33.7844 90.6074 26.7958C90.6074 26.7958 90.6394 25.923 90.2924 25.6842C90.2924 25.6842 88.9286 24.4664 84.0247 24.837C84.0247 24.837 79.75 25.1283 77.4163 27.2196C77.4163 27.2196 77.2066 27.4047 77.2066 27.6427C77.2066 27.6427 77.1562 28.1568 78.4391 27.934C78.4391 27.934 82.7134 27.3248 85.2572 27.6427C85.2572 27.6427 86.5689 27.8015 86.9359 28.252C86.9359 28.252 87.5392 28.755 87.2242 30.4222C87.2242 30.4229 86.3584 34.6583 84.995 37.2523Z" fill="var(--fill-0, #D4CEC6)"/>
<path d="M84.1331 30.5476C84.1331 30.5476 84.7715 31.3825 83.7414 32.1026C83.7414 32.1026 72.7373 40.9875 54.2604 40.9875C54.2604 40.9875 35.2409 41.9346 19.3596 27.3692C19.3596 27.3692 18.8029 26.8757 19.1485 26.4171C19.1485 26.4171 19.4575 25.9951 20.2574 26.4541C20.2574 26.4541 35.1969 35.8509 54.8175 35.8509C54.8175 35.8509 68.4552 36.3837 82.4448 30.3444C82.4448 30.3444 83.5594 29.7615 84.1331 30.5476Z" fill="var(--fill-0, #D4CEC6)"/>
</g>
</svg>
