<svg preserveAspectRatio="none" width="100%" height="100%" overflow="visible" style="display: block;" viewBox="0 0 191.158 57.0001" fill="none" xmlns="http://www.w3.org/2000/svg">
<g id="Group 85">
<path id="Vector" d="M191.158 7.78774C191.158 10.302 189.312 12.1382 186.807 12.1382C184.303 12.1382 182.457 10.2926 182.457 7.78774C182.457 5.28292 184.303 3.43725 186.807 3.43725C189.312 3.43725 191.158 5.2735 191.158 7.78774ZM190.207 7.78774C190.197 5.81025 188.766 4.35067 186.807 4.35067C184.849 4.35067 183.408 5.80083 183.408 7.78774C183.408 9.77466 184.849 11.2248 186.807 11.2248C188.766 11.2248 190.197 9.77466 190.207 7.78774Z" fill="var(--fill-0, black)"/>
<path id="Vector_2" d="M187.014 8.29702H186.195V10.0768H185.338V5.46261H187.513C188.144 5.46261 188.483 5.81103 188.483 6.43253V7.31769C188.483 7.80736 188.267 8.12752 187.881 8.24994L188.493 10.0768H187.57L186.995 8.29702H187.014ZM186.195 6.1877V7.56253H187.372C187.542 7.56253 187.626 7.47778 187.626 7.30828V6.45136C187.626 6.28186 187.551 6.19711 187.372 6.19711H186.195V6.1877Z" fill="var(--fill-0, black)"/>
<path id="Vector_3" d="M12.0816 45.0411H7.96649C2.825 45.0411 0 42.282 0 37.1406V12.3371H7.90056V35.9164C7.90056 37.4607 8.67273 38.2329 10.2171 38.2329H12.2134C13.6918 38.2329 14.1438 37.8468 15.1043 37.2724L18.8992 34.7676V12.3371H26.7998V44.7869H19.6714L19.2853 42.0278L16.8464 43.638C15.4998 44.4761 14.4075 45.0505 12.091 45.0505L12.0816 45.0411Z" fill="var(--fill-0, black)"/>
<path id="Vector_4" d="M45.6237 18.8909C44.2112 18.8909 43.6274 19.277 42.7328 19.8514L38.9379 22.3563V44.7773H31.0373V12.337H38.1657L38.5518 15.096L40.9907 13.4858C42.3373 12.5818 43.4296 12.0733 45.7461 12.0733H50.1814C55.3229 12.0733 58.1479 14.8324 58.1479 19.9739V44.7773H50.2473V21.198C50.2473 19.6537 49.4751 18.8815 47.9308 18.8815H45.6143L45.6237 18.8909Z" fill="var(--fill-0, black)"/>
<path id="Vector_5" d="M62.1309 0H70.2952V7.90056H62.1309V0ZM62.2628 12.3358H70.1633V44.7856H62.2628V12.3358Z" fill="var(--fill-0, black)"/>
<path id="Vector_6" d="M91.1152 23.0049V29.8131H74.4101V23.0049H91.1152Z" fill="var(--fill-0, black)"/>
<path id="Vector_7" d="M103.254 42.2819V57.0001H95.3531V12.337H102.481L102.868 15.096L105.306 13.4858C106.653 12.6477 107.745 12.0733 110.062 12.0733H114.497C119.639 12.0733 122.464 14.8324 122.464 19.9739V37.131C122.464 42.2066 119.639 45.0316 114.497 45.0316H110.062C107.745 45.0316 106.653 44.4571 105.306 43.6191L103.254 42.2725V42.2819ZM112.256 38.2327C113.8 38.2327 114.572 37.4606 114.572 35.9162V21.198C114.572 19.6537 113.8 18.8815 112.256 18.8815H109.939C108.659 18.8815 108.009 19.2676 107.049 19.842L103.254 22.2809V34.7486L107.049 37.2534C108.009 37.8937 108.527 38.2139 109.939 38.2139H112.256V38.2327Z" fill="var(--fill-0, black)"/>
<path id="Vector_8" d="M136.862 45.0408H133.265C128.575 45.0408 125.232 42.7902 125.232 37.7806V33.7974C125.232 28.4016 128.641 26.669 133.331 26.0851L143.736 24.8045V20.7553C143.736 19.211 142.898 18.4388 141.363 18.4388H135.967C134.423 18.4388 133.594 19.211 133.594 20.7553V22.6857H125.948V20.5011C125.948 14.9735 129.093 12.0826 134.753 12.0826H142.719C148.369 12.0826 151.524 15.1712 151.524 20.8212V44.7866H144.518L144.132 41.8957L142.013 43.3082C140.403 44.3346 139.376 45.0408 136.871 45.0408H136.862ZM140.393 37.7147L143.736 35.53V30.9064L135.186 32.0647C133.707 32.2624 132.935 32.705 132.935 34.2494V36.5658C132.935 38.1102 133.576 38.6846 135.12 38.6846H137.625C138.783 38.6846 139.423 38.3644 140.384 37.7241L140.393 37.7147Z" fill="var(--fill-0, black)"/>
<path id="Vector_9" d="M163.529 30.6512V44.7856H155.628V0H163.529V23.8429H166.806L174 18.8333C174.838 18.2589 175.28 17.741 175.28 16.7145V12.3452H182.475V17.9952C182.475 20.952 179.904 22.6188 178.68 23.4569L173.538 26.9881L180.29 33.4103C182.286 35.2747 182.993 36.8191 182.993 38.6836V44.7856H175.346V40.0302C175.346 39.1262 175.026 38.2975 174.066 37.3935L167.258 30.6418H163.529V30.6512Z" fill="var(--fill-0, black)"/>
</g>
</svg>
