<svg preserveAspectRatio="none" width="100%" height="100%" overflow="visible" style="display: block;" viewBox="0 0 18 23" fill="none" xmlns="http://www.w3.org/2000/svg">
<g id="Frame 138">
<path id="&#194;&#174;" d="M8.76 22.6C7.08 22.6 5.57333 22.2267 4.24 21.48C2.90667 20.7067 1.86667 19.6533 1.12 18.32C0.373333 16.96 0 15.4533 0 13.8C0 12.12 0.373333 10.6133 1.12 9.28C1.86667 7.92 2.90667 6.86667 4.24 6.12C5.57333 5.37333 7.08 5 8.76 5C10.44 5 11.9467 5.37333 13.28 6.12C14.6133 6.86667 15.6533 7.92 16.4 9.28C17.1733 10.6133 17.56 12.12 17.56 13.8C17.56 15.4533 17.1867 16.96 16.44 18.32C15.6933 19.6533 14.6533 20.7067 13.32 21.48C11.9867 22.2267 10.4667 22.6 8.76 22.6ZM8.76 20.8C10.0933 20.8 11.28 20.4933 12.32 19.88C13.3867 19.2667 14.2133 18.4267 14.8 17.36C15.3867 16.2933 15.68 15.1067 15.68 13.8C15.68 12.4667 15.3867 11.2667 14.8 10.2C14.2133 9.13333 13.3867 8.30667 12.32 7.72C11.28 7.13333 10.0933 6.84 8.76 6.84C7.42667 6.84 6.24 7.14667 5.2 7.76C4.16 8.34667 3.34667 9.17333 2.76 10.24C2.17333 11.28 1.88 12.4667 1.88 13.8C1.88 15.1067 2.17333 16.2933 2.76 17.36C3.34667 18.4267 4.16 19.2667 5.2 19.88C6.24 20.4933 7.42667 20.8 8.76 20.8ZM5.48 8.96H9.36C10.3467 8.96 11.12 9.21333 11.68 9.72C12.2667 10.2267 12.56 10.8933 12.56 11.72C12.56 12.2533 12.44 12.72 12.2 13.12C11.9867 13.4933 11.6933 13.76 11.32 13.92C11.64 14.1067 11.88 14.36 12.04 14.68C12.2 15 12.3067 15.4 12.36 15.88L12.6 18.4H10.76L10.52 16.16C10.4667 15.7333 10.3467 15.4267 10.16 15.24C9.97333 15.0533 9.68 14.96 9.28 14.96H7.4V18.4H5.48V8.96ZM9.2 13.28C9.70667 13.28 10.0667 13.16 10.28 12.92C10.52 12.68 10.64 12.36 10.64 11.96C10.64 11.56 10.52 11.24 10.28 11C10.0667 10.76 9.70667 10.64 9.2 10.64H7.4V13.28H9.2Z" fill="var(--fill-0, white)"/>
</g>
</svg>
