<svg preserveAspectRatio="none" width="100%" height="100%" overflow="visible" style="display: block;" viewBox="0 0 135 18" fill="none" xmlns="http://www.w3.org/2000/svg">
<g id="Vector">
<path d="M115.375 7.1405V18H118.767V10.7603H131.172V18H134.564V7.1405H115.375ZM118.379 3.61983H131.463C133.304 3.27273 134.612 1.58678 135 3.2941e-10H114.842C115.23 1.58678 116.586 3.22314 118.379 3.61983ZM105.054 18C106.75 17.2562 107.67 15.9669 108.058 14.4793H92.7943V0.0495868H89.3539V18H105.054ZM63.9142 3.57025H76.0283C77.8697 3.02479 79.3719 1.58678 79.7595 0.0495868H60.5707V10.6612H76.2706V14.3802H63.9627C62.0244 14.9256 60.3769 16.2645 59.5531 18H79.6626V7.1405H63.9627L63.9142 3.57025ZM34.065 3.61983H47.1482C48.9896 3.27273 50.3464 1.58678 50.6856 3.2941e-10H30.4792C30.8668 1.58678 32.2236 3.22314 34.065 3.61983ZM34.065 10.7107H47.1482C48.9896 10.3636 50.3464 8.67769 50.6856 7.09091H30.4792C30.8668 8.67769 32.2236 10.314 34.065 10.7107ZM34.065 18H47.1482C48.9896 17.6529 50.3464 15.9669 50.6856 14.3802H30.4792C30.8668 15.9669 32.2236 17.6529 34.065 18Z" fill="var(--fill-0, #D4CEC6)"/>
<path d="M0 0.0495868C0.387653 1.63636 1.74444 3.22314 3.53733 3.61983H9.06138L9.35212 3.71901V17.9504H12.7925V3.71901L13.0833 3.61983H18.6073C20.4487 3.12397 21.757 1.63636 22.1447 0.0495868V0L0 0.0495868Z" fill="var(--fill-0, #D4CEC6)"/>
</g>
</svg>
