<svg preserveAspectRatio="none" width="100%" height="100%" overflow="visible" style="display: block;" viewBox="0 0 135 41" fill="none" xmlns="http://www.w3.org/2000/svg">
<g id="Vector">
<path d="M70.316 10.353H66.2633L63.9776 13.9418H68.0283L70.316 10.353ZM80.8292 19.7957C78.7062 19.9657 74.9552 21.8048 72.9123 25.8229C70.8693 29.8411 70.8618 32.3216 70.8618 32.3216C70.8618 32.3216 71.9393 31.1778 73.591 29.9803C75.2427 28.7827 76.472 28.3572 76.472 28.3572C76.472 28.3572 76.7785 26.882 77.5413 25.339C78.2831 23.8381 79.4602 22.2755 80.9166 21.921C83.8689 21.2014 82.4551 26.4191 80.2867 29.8214C79.1212 31.6499 74.9871 36.905 71.428 36.905C67.8689 36.905 67.182 33.5822 67.9327 30.4753C68.6826 27.3691 69.7207 23.4225 74.9132 16.2516C80.1057 9.0806 85.7261 4.82936 88.9793 3.04285C92.3208 1.20908 93.6823 2.01271 93.6823 2.01271C93.6823 2.01271 89.4167 4.55689 86.9899 7.61778C84.6696 10.5434 83.2851 13.8354 84.3618 15.4486C85.387 16.9856 89.001 17.0145 92.9805 11.4508C96.9085 5.95864 95.9165 2.69291 95.9165 2.69291C95.9165 2.69291 96.3911 2.54321 96.7098 2.50185C98.6253 2.25498 100.16 2.74412 102.536 3.92396C105.025 5.16027 107.413 7.14308 110.685 8.76545C111.67 7.7202 112.767 6.60995 113.92 5.52663C109.509 3.4473 106.16 0.483577 101.833 0.199285C98.0673 -0.0475817 95.0981 1.2813 95.0981 1.2813C95.0981 1.2813 93.9495 -0.233389 90.406 0.261002C86.8625 0.75605 75.9452 5.17602 66.6566 19.5797C58.2582 32.6026 62.2153 40.0657 68.252 39.9804C74.7959 39.8871 81.0211 32.8403 83.1278 27.029C85.2345 21.2178 82.7447 19.6427 80.8292 19.7957ZM93.6755 7.69459C92.5757 10.2906 90.9565 12.1047 89.3631 13.4901C87.3195 15.2674 86.198 15.2076 85.7125 14.8505C84.4445 13.9155 86.1458 10.3898 89.0987 7.23697C92.0394 4.09664 94.5712 3.11967 94.5712 3.11967C94.5712 3.15644 94.9923 4.58183 93.6755 7.69459ZM130.116 3.90886C127.122 5.77415 122.97 7.46348 118.985 7.09121C117.978 8.10429 116.897 9.27165 115.813 10.5487C122.729 11.8697 128.778 7.72086 131.999 4.18593C134.008 1.98185 135 0.0141351 135 0.0141351C135 0.0141351 133.082 2.06129 130.116 3.90886Z" fill="var(--fill-0, #D4CEC6)"/>
<path d="M126.844 20.2756H122.583L121.891 21.3117C121.891 21.3117 121.021 19.7931 119.549 19.8173C117.027 19.8594 114.503 21.724 111.569 24.9582C109.419 27.3278 105.855 32.6032 105.855 32.6032C105.855 32.6032 103.121 36.6838 101.738 36.364C99.3793 35.8184 103.717 27.3691 103.717 27.3691C103.717 27.3691 105.997 26.0054 108.952 23.5978C110.813 22.0825 112.953 19.9979 114.921 18.0656C116.71 16.308 118.819 13.9214 120.823 11.307C120.31 11.3858 119.784 11.439 119.248 11.4646C117.45 13.7599 115.531 15.8143 113.899 17.4472C111.47 19.8778 109.235 21.8665 107.611 23.135C106.055 24.3496 105.057 24.8965 105.057 24.8965C105.057 24.8965 108.025 18.9934 112.973 12.4711C117.921 5.94945 124.848 -0.109298 124.305 2.76513C124.15 3.59043 123.62 4.77421 122.821 6.17925C123.384 6.06566 123.93 5.92385 124.458 5.76233C125.65 3.37967 126.056 1.41589 125.166 0.848625C121.536 -1.46641 112.302 8.11282 107.673 13.6765C103.045 19.2402 98.8558 27.7427 98.8558 27.7427C98.8558 27.7427 98.1317 28.0368 97.3309 28.1839C96.8257 28.2771 96.6101 28.2568 96.5274 28.2253C96.486 28.2089 96.4813 28.1813 96.4813 28.1813C96.4813 28.1813 100.553 20.8107 96.3843 19.8331C92.3615 18.8903 85.3911 26.0967 82.9128 31.1096C81.2123 34.5486 80.2528 38.878 83.1691 39.9088C86.3275 41.0256 91.6922 35.4422 92.9534 33.8198C94.2146 32.1968 95.789 29.4983 95.789 29.4983C95.789 29.4983 96.5593 29.459 96.9803 29.3992C97.7859 29.2843 98.1629 29.1885 98.1629 29.1885C98.1629 29.1885 97.6408 30.5127 97.0759 32.1916C96.0229 35.3221 95.073 39.8011 98.864 40.0119C101.279 40.1452 104.823 35.9215 104.823 35.9215C104.823 35.9215 103.869 39.677 107.004 40.0119C109.318 40.2587 112.686 36.7967 112.686 36.7967C112.686 36.7967 111.952 39.7795 114.298 40.0421C116.307 40.2673 119.158 37.987 121.496 35.4783C124.049 32.7391 126.007 29.7393 126.007 29.7393H124.523C124.523 29.7393 121.238 34.5677 118.931 35.8598C117.037 36.9208 117.686 35.2209 118.26 34.33C118.894 33.3471 126.842 20.2756 126.842 20.2763L126.844 20.2756ZM94.376 29.3697C94.3176 29.499 93.2511 31.296 92.1099 32.7089C90.8806 34.2315 88.6302 36.5229 87.2774 36.0384C85.1626 35.2807 87.4897 30.8194 89.0112 28.6553C90.5328 26.4913 90.7057 26.3449 90.7484 26.2884C90.7911 26.232 90.8338 26.1801 90.8711 26.2471C90.9084 26.314 91.3925 27.203 92.3486 27.9745C93.3087 28.7492 94.2322 29.1583 94.3068 29.1839C94.3814 29.2095 94.4349 29.2403 94.376 29.369V29.3697ZM95.3273 27.7617C95.1937 27.9771 95.0981 27.9876 94.8208 27.916C94.3326 27.788 92.3099 26.8826 92.3255 24.8742C92.3398 22.917 95.1889 20.9998 96.3064 21.8192C97.3492 22.5834 96.8508 24.5374 96.4576 25.534C96.065 26.53 95.4147 27.6206 95.3273 27.7617ZM114.687 32.6032C114.124 33.3504 113.654 34.0253 113.229 34.4994C112.322 35.5138 111.73 35.9858 111.202 36.1106C110.937 36.173 110.607 36.1579 110.389 36.0298C109.614 35.5735 110.157 33.7969 111.505 31.4083C112.738 29.2252 114.164 27.0408 116.506 24.5262C118.858 22.0017 119.758 21.8803 120.416 21.9092C120.97 21.9321 121.049 22.4961 121.049 22.4961C121.049 22.4961 121.01 22.6268 120.922 22.7745C120.145 24.0778 116.234 30.5488 114.686 32.6032H114.687ZM51.8269 35.7613C49.2429 34.2151 45.9279 33.223 42.1193 33.1909C32.3079 33.1081 21.6252 37.7238 14.3897 37.7861C5.85576 37.8584 5.43062 31.5009 6.06324 28.0099C7.42477 20.489 12.9339 13.3141 16.4761 9.531C20.0189 5.74789 23.7312 2.8124 26.8177 2.06195C29.9042 1.3115 29.614 3.58452 29.2363 3.89507C28.8464 3.90295 28.0985 3.98436 27.6741 4.26865C27.0096 4.71249 26.122 5.52531 26.0664 6.81414C25.9708 8.79959 28.6206 9.14756 30.5361 4.99022C31.8427 2.15453 29.7706 0.230144 28.0497 0.0449935C25.6894 -0.209752 22.0822 0.584687 17.7766 3.26412C10.2828 7.92702 0.259127 18.2817 0.00350175 29.7702C-0.142279 36.324 4.27929 40.0119 10.3458 40.0119C16.4123 40.0119 24.6486 36.4146 32.691 36.3227C37.6706 36.2813 40.8933 37.9713 42.5254 40.7236C42.5254 40.7236 44.1473 38.1111 47.7593 37.9713C51.3326 37.8321 55.2667 38.8018 58.4962 41C57.4188 39.4925 54.373 37.2845 51.8262 35.7613H51.8269Z" fill="var(--fill-0, #D4CEC6)"/>
<path d="M29.4831 9.9512C25.3701 8.93615 18.5394 15.7158 15.661 21.2336C13.8859 24.6372 13.1075 28.9147 16.2679 30.0275C19.4283 31.1404 24.7903 25.561 26.0515 23.9386C27.3127 22.3156 29.3767 19.0649 29.3767 19.0649C29.3767 19.0649 30.01 18.9467 30.4249 18.8535C30.8399 18.7603 31.5105 18.5751 31.5105 18.5751C31.5105 18.5751 30.7328 19.9171 30.031 21.2926C29.199 22.9235 26.9384 28.3527 31.303 29.9809C35.473 31.5363 41.4093 25.0501 41.7212 24.9274C41.7212 24.9274 39.9542 29.3473 42.699 30.0275C45.7109 30.7734 49.0116 27.0369 49.0116 27.0369C49.0116 27.0369 48.3166 29.8417 50.6634 30.105C54.8659 30.5758 62.2994 20.1673 62.2994 20.1673H60.8145C60.8145 20.1673 57.0316 24.8808 55.2124 25.8544C53.3932 26.8281 54.0475 25.0981 54.5418 24.3246C55.1724 23.3405 63.2087 10.3379 63.2087 10.3379H58.9471L58.4528 11.0949C58.4528 11.0949 57.5747 9.7969 56.1068 9.88948C51.8357 10.1593 46.7537 16.7512 44.5189 19.6565C42.2847 22.5624 37.4644 28.1104 34.9265 27.1216C32.1607 26.0435 34.9109 21.0944 36.7301 18.1884C38.7107 15.0251 42.221 11.892 43.6089 11.8677C45.317 11.8368 44.6464 13.3358 44.6464 13.3358C44.6464 13.3358 43.3696 13.1815 42.444 14.3095C41.7891 15.1072 41.2466 16.2719 41.8691 16.9055C42.8746 17.9291 44.1839 16.8897 44.9657 15.7303C47.4033 12.1172 45.62 10.2132 43.7052 9.93544C39.6261 9.34256 35.8683 14.4171 33.0117 16.3028C31.0297 17.61 30.2018 17.5082 30.2018 17.5082C30.2018 17.5082 33.6402 10.9767 29.4838 9.95054L29.4831 9.9512ZM47.9498 21.6354C49.1832 19.4516 50.8634 17.3434 53.0501 14.7008C55.2368 12.0581 56.3251 11.8441 56.9835 11.873C57.5375 11.8966 57.6161 12.4599 57.6161 12.4599C57.6161 12.4599 52.865 20.4759 51.1414 22.7633C50.5786 23.5105 50.0972 24.1434 49.6728 24.6181C48.7655 25.6325 48.1065 26.123 47.5979 26.2451C47.3321 26.3081 47.0026 26.2924 46.7836 26.1637C46.0092 25.7074 46.5998 24.0233 47.9491 21.6354H47.9498ZM27.786 19.0341C27.727 19.1628 26.3702 21.3353 25.2297 22.7482C24.0011 24.2708 21.7303 26.5714 20.3776 26.0869C18.2627 25.3292 20.5186 20.8987 22.0401 18.7353C23.5617 16.5713 23.7848 16.2929 23.8282 16.2371C23.8709 16.18 23.9129 16.1281 23.9502 16.1958C23.9875 16.2627 24.4716 17.2266 25.5199 17.8752C26.5682 18.5246 27.6429 18.8233 27.7175 18.8489C27.7921 18.8745 27.8456 18.906 27.7866 19.0341H27.786ZM29.555 15.6521C29.1617 16.6494 28.8105 17.2778 28.7379 17.4262C28.6213 17.6638 28.3291 17.5877 28.3291 17.5877C27.9961 17.5732 25.408 17.0014 25.4229 14.9929C25.4372 13.0357 28.287 11.1186 29.4038 11.938C30.4466 12.7022 29.9483 14.6561 29.555 15.6521ZM123.638 37.6292C123.389 37.4926 123.112 37.425 122.808 37.425C122.504 37.425 122.227 37.4933 121.978 37.6292C121.729 37.7658 121.534 37.9509 121.391 38.1866C121.248 38.4217 121.177 38.6777 121.177 38.9535C121.177 39.2293 121.248 39.4899 121.391 39.7236C121.533 39.9567 121.729 40.1419 121.978 40.2778C122.227 40.4143 122.504 40.482 122.808 40.482C123.112 40.482 123.389 40.4137 123.638 40.2778C123.887 40.1419 124.082 39.9567 124.225 39.7236C124.367 39.4906 124.439 39.2338 124.439 38.9535C124.439 38.6731 124.368 38.4217 124.225 38.1866C124.083 37.9516 123.887 37.7658 123.638 37.6292ZM123.93 39.5864C123.822 39.7729 123.67 39.9193 123.476 40.0263C123.281 40.1327 123.058 40.1859 122.808 40.1859C122.558 40.1859 122.335 40.1327 122.14 40.0263C121.946 39.92 121.794 39.7735 121.686 39.5864C121.578 39.4 121.524 39.1885 121.524 38.9535C121.524 38.7184 121.578 38.5129 121.686 38.3265C121.794 38.14 121.946 37.9936 122.143 37.8866C122.339 37.7796 122.561 37.727 122.808 37.727C123.055 37.727 123.277 37.7802 123.473 37.8866C123.67 37.9929 123.822 38.1394 123.93 38.3265C124.038 38.5129 124.092 38.7224 124.092 38.9535C124.092 39.1846 124.038 39.4 123.93 39.5864Z" fill="var(--fill-0, #D4CEC6)"/>
<path d="M123.421 38.9285C123.467 38.8557 123.49 38.7743 123.49 38.685C123.49 38.5615 123.449 38.4584 123.366 38.3744C123.283 38.2904 123.172 38.2483 123.034 38.2483H122.207V39.6317H122.571V39.1275H122.848L123.184 39.6317H123.6L123.224 39.094C123.309 39.0566 123.375 39.0014 123.421 38.9285ZM123.074 38.7828C123.047 38.8071 123.01 38.8189 122.964 38.8189H122.571V38.5504H122.964C123.01 38.5504 123.047 38.5628 123.074 38.5865C123.101 38.6108 123.114 38.6436 123.114 38.6843C123.114 38.725 123.101 38.7578 123.074 38.7821V38.7828Z" fill="var(--fill-0, #D4CEC6)"/>
</g>
</svg>
